#!OML:ASF I:\Actors\actors\Patient Classification 1\Patient 1\Session 1\Subject1.ASF
:FULLY-SPECIFIED
:DEGREES
1030
root 0.19782 17.7596 8.71738 17.5491 -2.22989 -7.96745
lowerback 11.5694 -0.970434 13.659
upperback -6.87572 0.997239 -1.0163
thorax -14.2216 -0.930952 -9.13035
lowerneck -13.8521 -9.33545 -5.71125
upperneck 17.5349 -14.0062 11.1753
head 9.0042 -5.93284 2.93558
rclavicle 3.67752e-015 -1.59028e-015
rhumerus 42.1845 9.84645 25.1123
rradius 96.4687
rwrist -19.0169
rhand 31.6923 -16.1468
rfingers 7.12502
rthumb 55.2216 -34.1239
lclavicle 3.67752e-015 -1.59028e-015
lhumerus -44.5849 -69.7628 100.826
lradius 107.123
lwrist 20.0686
lhand -16.8596 -17.7559
lfingers 7.12502
lthumb 9.37082 12.0158
rfemur -12.6058 28.4833 19.0612
rtibia 2.54338
rfoot -13.3815 -32.2929
rtoes 9.47916
lfemur -2.37204 -50.5741 -6.71855
ltibia -7.35694
lfoot -45.4323 57.238
ltoes 30.4128
1031
root 0.193154 17.7607 8.71605 17.5157 -2.3305 -8.02765
lowerback 11.5817 -0.925115 13.6725
upperback -6.84276 1.04604 -1.13243
thorax -14.1748 -0.912463 -9.2854
lowerneck -13.9178 -9.32567 -5.80396
upperneck 17.506 -14.0469 11.5221
head 9.04689 -5.92286 3.05722
rclavicle -1.44119e-014 1.43125e-014
rhumerus 42.5548 10.5526 25.3815
rradius 96.5143
rwrist -18.2152
rhand 31.6358 -16.0017
rfingers 7.12502
rthumb 55.1713 -34.0157
lclavicle -1.44119e-014 1.43125e-014
lhumerus -44.3749 -69.7388 100.596
lradius 107.148
lwrist 20.0971
lhand -16.8314 -17.7311
lfingers 7.12502
lthumb 9.39804 12.0394
rfemur -12.5817 28.4561 19.1655
rtibia 2.56679
rfoot -13.3004 -32.2015
rtoes 9.07697
lfemur -2.18655 -50.4862 -6.78949
ltibia -7.42134
lfoot -45.5967 57.1883
ltoes 30.5675
1032
root 0.185789 17.7619 8.71214 17.474 -2.36427 -8.08937
lowerback 11.6404 -0.884446 13.7216
upperback -6.80441 1.10151 -1.25332
thorax -14.1495 -0.89612 -9.46957
lowerneck -14.0621 -9.3711 -5.66584
upperneck 17.4813 -14.137 11.535
head 9.0648 -5.94977 3.02054
rclavicle -1.63003e-014 7.95139e-016
rhumerus 42.8839 11.3119 25.6483
rradius 96.5355
rwrist -17.7727
rhand 31.5397 -15.8713
rfingers 7.12502
rthumb 55.0856 -33.9478
lclavicle -1.63003e-014 7.95139e-016
lhumerus -44.0174 -69.813 100.262
lradius 107.17
lwrist 20.168
lhand -16.734 -17.7098
lfingers 7.12502
lthumb 9.49198 12.0564
rfemur -12.5432 28.5268 19.2906
rtibia 2.59428
rfoot -13.3081 -32.2124
rtoes 8.93686
lfemur -2.14782 -50.443 -6.72401
ltibia -7.40716
lfoot -45.6248 57.1998
ltoes 30.5433
1033
root 0.177549 17.7618 8.70945 17.4505 -2.39571 -8.13844
lowerback 11.6588 -0.853634 13.7208
upperback -6.79742 1.13115 -1.36865
thorax -14.143 -0.889711 -9.61212
lowerneck -14.1064 -9.38615 -5.46305
upperneck 17.4711 -14.1895 11.4832
head 9.05529 -5.9651 2.96201
rclavicle 6.65929e-015 -3.65764e-014
rhumerus 43.2293 12.103 25.8817
rradius 96.6229
rwrist -17.7281
rhand 31.2206 -15.7596
rfingers 7.12502
rthumb 54.8009 -34.0414
lclavicle 6.65929e-015 -3.65764e-014
lhumerus -43.9931 -69.8385 100.199
lradius 107.203
lwrist 20.3085
lhand -16.7767 -17.6931
lfingers 7.12502
lthumb 9.45077 12.075
rfemur -12.5138 28.66 19.3822
rtibia 2.59781
rfoot -13.3445 -32.2657
rtoes 9.08156
lfemur -2.10364 -50.4071 -6.67896
ltibia -7.39242
lfoot -45.6817 57.1624
ltoes 30.5251
1034
root 0.170838 17.7615 8.70872 17.4365 -2.48153 -8.16272
lowerback 11.6421 -0.80314 13.6765
upperback -6.79514 1.17283 -1.49665
thorax -14.1154 -0.872761 -9.74626
lowerneck -14.0855 -9.38083 -5.49144
upperneck 17.4316 -14.2331 11.7475
head 9.06748 -5.96447 3.04922
rclavicle -7.55382e-015 1.35174e-014
rhumerus 43.5444 12.9301 26.0171
rradius 96.6723
rwrist -17.6412
rhand 30.578 -15.6378
rfingers 7.12502
rthumb 54.2259 -34.3219
lclavicle -7.55382e-015 1.35174e-014
lhumerus -44.1273 -69.8314 100.233
lradius 107.263
lwrist 20.375
lhand -16.7963 -17.7224
lfingers 7.12502
lthumb 9.43188 12.0465
rfemur -12.5012 28.7647 19.4234
rtibia 2.59172
rfoot -13.3236 -32.2707
rtoes 9.13391
lfemur -2.02433 -50.3305 -6.69777
ltibia -7.4219
lfoot -45.5616 57.2467
ltoes 30.3255
1035
root 0.165107 17.7618 8.70794 17.4052 -2.58073 -8.15024
lowerback 11.6633 -0.74167 13.6116
upperback -6.77763 1.22997 -1.63005
thorax -14.0878 -0.846138 -9.87942
lowerneck -14.207 -9.40958 -5.71128
upperneck 17.4929 -14.3383 12.2106
head 9.17852 -5.97497 3.21789
rclavicle 1.22253e-014 -1.03368e-014
rhumerus 43.8142 13.7315 26.096
rradius 96.6725
rwrist -17.2655
rhand 29.8373 -15.7115
rfingers 7.12502
rthumb 53.5607 -34.8423
lclavicle 1.22253e-014 -1.03368e-014
lhumerus -44.1667 -69.8352 100.209
lradius 107.275
lwrist 20.2768
lhand -16.7506 -17.9705
lfingers 7.12502
lthumb 9.47594 11.7964
rfemur -12.4669 28.7766 19.4356
rtibia 2.56891
rfoot -13.2381 -32.2011
rtoes 8.84461
lfemur -1.93315 -50.257 -6.77887
ltibia -7.42348
lfoot -45.7072 57.2039
ltoes 30.4448
1036
root 0.159167 17.7629 8.7071 17.4039 -2.67671 -8.15682
lowerback 11.6535 -0.661161 13.5634
upperback -6.7643 1.31307 -1.75143
thorax -14.0387 -0.80639 -10.0128
lowerneck -14.3087 -9.46189 -5.73227
upperneck 17.5148 -14.4526 12.4
head 9.23507 -6.00572 3.26324
rclavicle -1.81888e-014 1.59028e-014
rhumerus 44.0808 14.4523 26.2231
rradius 96.6845
rwrist -16.7192
rhand 29.2984 -15.9626
rfingers 7.12502
rthumb 53.0751 -35.4073
lclavicle -1.81888e-014 1.59028e-014
lhumerus -44.1028 -69.8743 100.164
lradius 107.177
lwrist 20.0524
lhand -16.8428 -18.366
lfingers 7.12502
lthumb 9.38701 11.405
rfemur -12.4821 28.7339 19.4561
rtibia 2.56502
rfoot -13.1173 -32.083
rtoes 8.58705
lfemur -1.85816 -50.1775 -6.83097
ltibia -7.40508
lfoot -46.2957 56.8819
ltoes 31.0748
1037
root 0.153178 17.7644 8.71077 17.5178 -2.63978 -8.43116
lowerback 11.4884 -0.591094 13.821
upperback -6.80161 1.4256 -1.80013
thorax -13.9529 -0.776609 -10.2387
lowerneck -14.138 -9.48315 -5.68861
upperneck 17.3553 -14.5098 12.5494
head 9.16493 -6.02995 3.30499
rclavicle -2.38542e-015 6.36111e-015
rhumerus 44.4185 15.209 26.3897
rradius 96.673
rwrist -16.2554
rhand 28.8098 -16.1065
rfingers 7.12502
rthumb 52.6338 -35.828
lclavicle -2.38542e-015 6.36111e-015
lhumerus -44.1353 -69.8317 100.175
lradius 107.116
lwrist 20.1232
lhand -16.581 -18.7182
lfingers 7.12502
lthumb 9.63964 11.0413
rfemur -12.5741 28.6988 19.7762
rtibia 2.55667
rfoot -12.9835 -32.0048
rtoes 8.57644
lfemur -1.98247 -50.0994 -6.37778
ltibia -7.43924
lfoot -46.3538 56.8637
ltoes 31.0834
1038
root 0.148591 17.7653 8.71394 17.6128 -2.60732 -8.7359
lowerback 11.3809 -0.50448 14.1535
upperback -6.79958 1.58124 -1.83521
thorax -13.8427 -0.728292 -10.5022
lowerneck -14.1104 -9.52007 -5.795
upperneck 17.2064 -14.5784 12.8121
head 9.14771 -6.05114 3.40055
rclavicle -9.93923e-015 -1.35174e-014
rhumerus 44.6661 15.9207 26.643
rradius 96.6599
rwrist -16.0668
rhand 28.1287 -16.308
rfingers 7.12502
rthumb 52.0169 -36.4036
lclavicle -9.93923e-015 -1.35174e-014
lhumerus -43.797 -69.7484 99.8261
lradius 107.187
lwrist 20.8259
lhand -15.6204 -19.1508
lfingers 7.12502
lthumb 10.5663 10.5636
rfemur -12.6338 28.6558 20.1405
rtibia 2.53706
rfoot -12.8539 -31.9174
rtoes 8.4529
lfemur -2.12247 -50.0053 -5.87582
ltibia -7.49505
lfoot -45.878 57.1633
ltoes 30.5111
1039
root 0.145603 17.7654 8.70166 17.417 -2.98246 -8.35719
lowerback 11.7193 -0.336259 13.7218
upperback -6.65981 1.74645 -2.07501
thorax -13.8218 -0.616946 -10.5827
lowerneck -14.4203 -9.62227 -5.94555
upperneck 17.1342 -14.7225 13.0445
head 9.22807 -6.09375 3.46703
rclavicle -6.06293e-015 4.77083e-015
rhumerus 44.7003 16.4974 26.8961
rradius 96.6708
rwrist -15.9741
rhand 27.2254 -16.7339
rfingers 7.12502
rthumb 51.1961 -37.3052
lclavicle -6.06293e-015 4.77083e-015
lhumerus -43.4862 -70.0028 99.5969
lradius 107.236
lwrist 20.4973
lhand -16.209 -18.8783
lfingers 7.12502
lthumb 9.99848 10.8642
rfemur -12.5789 28.608 19.6942
rtibia 2.61023
rfoot -12.7478 -31.6844
rtoes 8.18357
lfemur -1.76759 -49.8403 -6.64996
ltibia -7.48135
lfoot -45.9946 57.0872
ltoes 30.7389
1040
root 0.138351 17.7618 8.70878 17.2452 -2.87586 -7.9457
lowerback 11.5773 -0.300862 13.3926
upperback -6.4886 1.67683 -2.27968
thorax -13.5372 -0.597665 -10.6048
lowerneck -14.6699 -9.73089 -6.19203
upperneck 17.1416 -14.896 13.3973
head 9.34743 -6.14355 3.58723
rclavicle 4.57205e-015 -2.38542e-015
rhumerus 44.8772 17.0685 27.0797
rradius 96.6336
rwrist -15.4756
rhand 26.2845 -16.9507
rfingers 7.12502
rthumb 50.3378 -37.9943
lclavicle 4.57205e-015 -2.38542e-015
lhumerus -43.0787 -70.0018 99.2629
lradius 107.282
lwrist 20.8778
lhand -15.8004 -18.9291
lfingers 7.12502
lthumb 10.3927 10.794
rfemur -12.2418 28.2145 19.4364
rtibia 2.4329
rfoot -12.6886 -31.5489
rtoes 8.15827
lfemur -1.65536 -50.1196 -7.26461
ltibia -7.3043
lfoot -45.4516 57.4159
ltoes 29.9322
1041
root 0.133527 17.7613 8.71026 17.2026 -2.85767 -7.83252
lowerback 11.5162 -0.254539 13.2432
upperback -6.41792 1.68723 -2.38123
thorax -13.4066 -0.570183 -10.634
lowerneck -14.7566 -9.82151 -6.35772
upperneck 17.0842 -15.0401 13.6736
head 9.3989 -6.1926 3.68014
rclavicle -4.57205e-015 -5.56597e-015
rhumerus 45.1969 17.6171 27.2343
rradius 96.5462
rwrist -14.578
rhand 25.6021 -16.8124
rfingers 7.12502
rthumb 49.7134 -38.1843
lclavicle -4.57205e-015 -5.56597e-015
lhumerus -42.9265 -69.9086 99.1141
lradius 107.326
lwrist 21.065
lhand -15.551 -18.9056
lfingers 7.12502
lthumb 10.6333 10.8053
rfemur -12.1607 28.1127 19.3749
rtibia 2.39227
rfoot -12.6701 -31.5096
rtoes 8.24975
lfemur -1.65169 -50.1921 -7.41972
ltibia -7.21414
lfoot -45.4551 57.4417
ltoes 29.8079
1042
root 0.129862 17.7618 8.70931 17.2204 -2.88026 -7.81297
lowerback 11.4621 -0.188993 13.1925
upperback -6.35859 1.74333 -2.48378
thorax -13.2821 -0.531597 -10.7322
lowerneck -14.8144 -9.89205 -6.43403
upperneck 16.9498 -15.1531 13.8993
head 9.40381 -6.23139 3.74761
rclavicle -8.94531e-015 3.97569e-015
rhumerus 45.4619 18.1724 27.2451
rradius 96.4617
rwrist -13.9507
rhand 25.1961 -16.7603
rfingers 7.12502
rthumb 49.3412 -38.3222
lclavicle -8.94531e-015 3.97569e-015
lhumerus -42.6862 -69.9598 98.8391
lradius 107.379
lwrist 20.9442
lhand -15.6528 -18.6914
lfingers 7.12502
lthumb 10.5351 11.0246
rfemur -12.1945 28.1857 19.3439
rtibia 2.40903
rfoot -12.7537 -31.5609
rtoes 8.33833
lfemur -1.70801 -50.1816 -7.40185
ltibia -7.17598
lfoot -45.5628 57.4089
ltoes 29.8451
1043
root 0.127306 17.7641 8.70406 17.3035 -2.94807 -7.96821
lowerback 11.4545 -0.119002 13.2948
upperback -6.35376 1.84785 -2.5447
thorax -13.2402 -0.49174 -10.8853
lowerneck -14.8549 -9.92821 -6.57851
upperneck 16.8745 -15.2394 14.2411
head 9.44018 -6.24912 3.8707
rclavicle -1.37161e-014 -3.73715e-014
rhumerus 45.7876 18.799 27.2168
rradius 96.4435
rwrist -13.804
rhand 24.7791 -16.915
rfingers 7.12502
rthumb 48.9583 -38.668
lclavicle -1.37161e-014 -3.73715e-014
lhumerus -42.4281 -69.9721 98.568
lradius 107.389
lwrist 20.9054
lhand -15.4543 -18.5608
lfingers 7.12502
lthumb 10.7266 11.1454
rfemur -12.3639 28.3399 19.4399
rtibia 2.49497
rfoot -12.8342 -31.5783
rtoes 8.42392
lfemur -1.7995 -50.054 -7.11447
ltibia -7.24635
lfoot -45.6268 57.3677
ltoes 29.8802
1044
root 0.126469 17.7716 8.68979 17.5225 -3.13732 -8.5431
lowerback 11.5361 -0.0221449 13.7045
upperback -6.42607 2.07835 -2.46679
thorax -13.3135 -0.426363 -11.0881
lowerneck -14.8789 -9.94997 -6.61455
upperneck 16.7978 -15.2847 14.3899
head 9.44101 -6.26059 3.91832
rclavicle -1.72943e-014 2.78299e-014
rhumerus 46.1902 19.385 27.3017
rradius 96.5022
rwrist -13.7973
rhand 24.344 -17.0004
rfingers 7.12502
rthumb 48.5582 -38.9485
lclavicle -1.72943e-014 2.78299e-014
lhumerus -42.2241 -69.845 98.423
lradius 107.288
lwrist 20.8616
lhand -15.1 -18.5749
lfingers 7.12502
lthumb 11.0683 11.1132
rfemur -12.8347 28.6536 19.8722
rtibia 2.74025
rfoot -12.7707 -31.5256
rtoes 8.35923
lfemur -2.00443 -49.6369 -6.20063
ltibia -7.44935
lfoot -46.052 57.0943
ltoes 30.507
